<mxfile host="app.diagrams.net" agent="Mozilla/5.0 (Windows NT 10.0; Win64; x64) AppleWebKit/537.36 (KHTML, like Gecko) Chrome/132.0.0.0 Safari/537.36 Edg/132.0.0.0" version="26.0.7">
  <diagram name="Page-1" id="FQgPKcrbpL54dOPPIr1T">
    <mxGraphModel dx="976" dy="418" grid="1" gridSize="10" guides="1" tooltips="1" connect="1" arrows="1" fold="1" page="1" pageScale="1" pageWidth="850" pageHeight="1100" math="0" shadow="0">
      <root>
        <mxCell id="0" />
        <mxCell id="1" parent="0" />
        <mxCell id="g-yWBIVXNdwUDmPCH66V-1" value="&lt;p style=&quot;margin:0px;margin-top:4px;text-align:center;&quot;&gt;&lt;b&gt;Hệ thống&lt;/b&gt;&lt;/p&gt;&lt;hr size=&quot;1&quot; style=&quot;border-style:solid;&quot;&gt;&lt;div style=&quot;height:2px;&quot;&gt;&lt;/div&gt;" style="verticalAlign=top;align=left;overflow=fill;html=1;whiteSpace=wrap;" vertex="1" parent="1">
          <mxGeometry x="260" width="380" height="440" as="geometry" />
        </mxCell>
        <mxCell id="g-yWBIVXNdwUDmPCH66V-2" value="&lt;p style=&quot;margin:0px;margin-top:4px;text-align:center;&quot;&gt;&lt;b&gt;Người dùng&lt;/b&gt;&lt;/p&gt;&lt;hr size=&quot;1&quot; style=&quot;border-style:solid;&quot;&gt;&lt;div style=&quot;height:2px;&quot;&gt;&lt;/div&gt;" style="verticalAlign=top;align=left;overflow=fill;html=1;whiteSpace=wrap;" vertex="1" parent="1">
          <mxGeometry width="260" height="440" as="geometry" />
        </mxCell>
        <mxCell id="g-yWBIVXNdwUDmPCH66V-3" value="" style="ellipse;html=1;shape=startState;fillColor=#000000;strokeColor=#ff0000;" vertex="1" parent="1">
          <mxGeometry x="20" y="45" width="30" height="30" as="geometry" />
        </mxCell>
        <mxCell id="g-yWBIVXNdwUDmPCH66V-4" value="" style="edgeStyle=orthogonalEdgeStyle;rounded=0;orthogonalLoop=1;jettySize=auto;html=1;strokeColor=#FF0500;" edge="1" parent="1" source="g-yWBIVXNdwUDmPCH66V-3" target="g-yWBIVXNdwUDmPCH66V-6">
          <mxGeometry relative="1" as="geometry" />
        </mxCell>
        <mxCell id="g-yWBIVXNdwUDmPCH66V-5" value="" style="edgeStyle=orthogonalEdgeStyle;rounded=0;orthogonalLoop=1;jettySize=auto;html=1;strokeColor=#FF0500;" edge="1" parent="1" source="g-yWBIVXNdwUDmPCH66V-6" target="g-yWBIVXNdwUDmPCH66V-8">
          <mxGeometry relative="1" as="geometry" />
        </mxCell>
        <mxCell id="g-yWBIVXNdwUDmPCH66V-6" value="Cập nhật ưu đãi" style="rounded=1;whiteSpace=wrap;html=1;arcSize=40;fontColor=#000000;fillColor=#ffffc0;strokeColor=#ff0000;" vertex="1" parent="1">
          <mxGeometry x="100" y="40" width="120" height="40" as="geometry" />
        </mxCell>
        <mxCell id="g-yWBIVXNdwUDmPCH66V-7" style="edgeStyle=orthogonalEdgeStyle;rounded=0;orthogonalLoop=1;jettySize=auto;html=1;entryX=0.5;entryY=0;entryDx=0;entryDy=0;strokeColor=#FF0500;" edge="1" parent="1" source="g-yWBIVXNdwUDmPCH66V-8" target="g-yWBIVXNdwUDmPCH66V-10">
          <mxGeometry relative="1" as="geometry">
            <Array as="points">
              <mxPoint x="360" y="100" />
              <mxPoint x="160" y="100" />
            </Array>
          </mxGeometry>
        </mxCell>
        <mxCell id="g-yWBIVXNdwUDmPCH66V-8" value="Hiển thị danh sách ưu đãi" style="rounded=1;whiteSpace=wrap;html=1;arcSize=40;fontColor=#000000;fillColor=#ffffc0;strokeColor=#ff0000;" vertex="1" parent="1">
          <mxGeometry x="300" y="40" width="120" height="40" as="geometry" />
        </mxCell>
        <mxCell id="g-yWBIVXNdwUDmPCH66V-9" value="" style="edgeStyle=orthogonalEdgeStyle;rounded=0;orthogonalLoop=1;jettySize=auto;html=1;strokeColor=#FF0500;" edge="1" parent="1" source="g-yWBIVXNdwUDmPCH66V-10" target="g-yWBIVXNdwUDmPCH66V-15">
          <mxGeometry relative="1" as="geometry" />
        </mxCell>
        <mxCell id="g-yWBIVXNdwUDmPCH66V-10" value="Chọn ưu đãi" style="rounded=1;whiteSpace=wrap;html=1;arcSize=40;fontColor=#000000;fillColor=#ffffc0;strokeColor=#ff0000;" vertex="1" parent="1">
          <mxGeometry x="100" y="120" width="120" height="40" as="geometry" />
        </mxCell>
        <mxCell id="g-yWBIVXNdwUDmPCH66V-12" style="edgeStyle=orthogonalEdgeStyle;rounded=0;orthogonalLoop=1;jettySize=auto;html=1;entryX=0.5;entryY=0;entryDx=0;entryDy=0;strokeColor=#FF0500;" edge="1" parent="1" source="g-yWBIVXNdwUDmPCH66V-13" target="g-yWBIVXNdwUDmPCH66V-18">
          <mxGeometry relative="1" as="geometry" />
        </mxCell>
        <mxCell id="g-yWBIVXNdwUDmPCH66V-13" value="Chỉnh sửa thông tin ưu đãi" style="rounded=1;whiteSpace=wrap;html=1;arcSize=40;fontColor=#000000;fillColor=#ffffc0;strokeColor=#ff0000;" vertex="1" parent="1">
          <mxGeometry x="100" y="200" width="120" height="40" as="geometry" />
        </mxCell>
        <mxCell id="g-yWBIVXNdwUDmPCH66V-14" style="edgeStyle=orthogonalEdgeStyle;rounded=0;orthogonalLoop=1;jettySize=auto;html=1;entryX=0.5;entryY=0;entryDx=0;entryDy=0;strokeColor=#FF0500;" edge="1" parent="1" source="g-yWBIVXNdwUDmPCH66V-15" target="g-yWBIVXNdwUDmPCH66V-13">
          <mxGeometry relative="1" as="geometry">
            <mxPoint x="210" y="190" as="targetPoint" />
            <Array as="points">
              <mxPoint x="360" y="180" />
              <mxPoint x="160" y="180" />
            </Array>
          </mxGeometry>
        </mxCell>
        <mxCell id="g-yWBIVXNdwUDmPCH66V-15" value="Hiển thị thông tin ưu đãi" style="rounded=1;whiteSpace=wrap;html=1;arcSize=40;fontColor=#000000;fillColor=#ffffc0;strokeColor=#ff0000;" vertex="1" parent="1">
          <mxGeometry x="300" y="120" width="120" height="40" as="geometry" />
        </mxCell>
        <mxCell id="g-yWBIVXNdwUDmPCH66V-16" value="" style="edgeStyle=orthogonalEdgeStyle;rounded=0;orthogonalLoop=1;jettySize=auto;html=1;strokeColor=#FF0500;" edge="1" parent="1" source="g-yWBIVXNdwUDmPCH66V-18" target="g-yWBIVXNdwUDmPCH66V-20">
          <mxGeometry relative="1" as="geometry" />
        </mxCell>
        <mxCell id="g-yWBIVXNdwUDmPCH66V-17" value="" style="edgeStyle=orthogonalEdgeStyle;rounded=0;orthogonalLoop=1;jettySize=auto;html=1;strokeColor=#FF0500;" edge="1" parent="1" source="g-yWBIVXNdwUDmPCH66V-18" target="g-yWBIVXNdwUDmPCH66V-26">
          <mxGeometry relative="1" as="geometry" />
        </mxCell>
        <mxCell id="g-yWBIVXNdwUDmPCH66V-18" value="Xác nhận&lt;br&gt;chỉnh sửa thông tin ưu đãi" style="rhombus;whiteSpace=wrap;html=1;fontColor=#000000;fillColor=#ffffc0;strokeColor=#FF0000;" vertex="1" parent="1">
          <mxGeometry x="300" y="240" width="120" height="80" as="geometry" />
        </mxCell>
        <mxCell id="g-yWBIVXNdwUDmPCH66V-19" value="" style="edgeStyle=orthogonalEdgeStyle;rounded=0;orthogonalLoop=1;jettySize=auto;html=1;strokeColor=#FF0500;" edge="1" parent="1" source="g-yWBIVXNdwUDmPCH66V-20" target="g-yWBIVXNdwUDmPCH66V-23">
          <mxGeometry relative="1" as="geometry" />
        </mxCell>
        <mxCell id="g-yWBIVXNdwUDmPCH66V-20" value="Cập nhật thông tin ưu đãi vào CSDL" style="rounded=1;whiteSpace=wrap;html=1;arcSize=40;fontColor=#000000;fillColor=#ffffc0;strokeColor=#ff0000;" vertex="1" parent="1">
          <mxGeometry x="300" y="360" width="120" height="40" as="geometry" />
        </mxCell>
        <mxCell id="g-yWBIVXNdwUDmPCH66V-21" value="" style="edgeStyle=orthogonalEdgeStyle;rounded=0;orthogonalLoop=1;jettySize=auto;html=1;strokeColor=#FF0500;" edge="1" parent="1" source="g-yWBIVXNdwUDmPCH66V-23" target="g-yWBIVXNdwUDmPCH66V-26">
          <mxGeometry relative="1" as="geometry" />
        </mxCell>
        <mxCell id="g-yWBIVXNdwUDmPCH66V-22" style="edgeStyle=orthogonalEdgeStyle;rounded=0;orthogonalLoop=1;jettySize=auto;html=1;strokeColor=light-dark(#FF0500,#FFFFFF);entryX=1;entryY=0.5;entryDx=0;entryDy=0;" edge="1" parent="1" source="g-yWBIVXNdwUDmPCH66V-23" target="g-yWBIVXNdwUDmPCH66V-8">
          <mxGeometry relative="1" as="geometry">
            <Array as="points">
              <mxPoint x="620" y="380" />
              <mxPoint x="620" y="60" />
            </Array>
            <mxPoint x="580" y="60" as="targetPoint" />
          </mxGeometry>
        </mxCell>
        <mxCell id="g-yWBIVXNdwUDmPCH66V-23" value="Cập nhật&lt;br&gt;ưu đãi khác" style="rhombus;whiteSpace=wrap;html=1;fontColor=#000000;fillColor=#ffffc0;strokeColor=#FF0000;" vertex="1" parent="1">
          <mxGeometry x="460" y="340" width="120" height="80" as="geometry" />
        </mxCell>
        <mxCell id="g-yWBIVXNdwUDmPCH66V-26" value="" style="ellipse;html=1;shape=endState;fillColor=#000000;strokeColor=#ff0000;" vertex="1" parent="1">
          <mxGeometry x="505" y="265" width="30" height="30" as="geometry" />
        </mxCell>
        <mxCell id="g-yWBIVXNdwUDmPCH66V-27" value="" style="endArrow=none;dashed=1;html=1;dashPattern=1 3;strokeWidth=2;rounded=0;" edge="1" parent="1">
          <mxGeometry width="50" height="50" relative="1" as="geometry">
            <mxPoint x="420" y="139.70999999999998" as="sourcePoint" />
            <mxPoint x="460" y="140" as="targetPoint" />
            <Array as="points">
              <mxPoint x="450" y="139.70999999999998" />
            </Array>
          </mxGeometry>
        </mxCell>
        <mxCell id="g-yWBIVXNdwUDmPCH66V-28" value="Đúng" style="text;html=1;align=center;verticalAlign=middle;whiteSpace=wrap;rounded=0;fontFamily=Helvetica;fontSize=12;fontColor=#000000;" vertex="1" parent="1">
          <mxGeometry x="350" y="310" width="60" height="30" as="geometry" />
        </mxCell>
        <mxCell id="g-yWBIVXNdwUDmPCH66V-29" value="Đúng" style="text;html=1;align=center;verticalAlign=middle;whiteSpace=wrap;rounded=0;fontFamily=Helvetica;fontSize=12;fontColor=#000000;" vertex="1" parent="1">
          <mxGeometry x="560" y="350" width="60" height="30" as="geometry" />
        </mxCell>
        <mxCell id="g-yWBIVXNdwUDmPCH66V-30" value="Sai" style="text;html=1;align=center;verticalAlign=middle;resizable=0;points=[];autosize=1;strokeColor=none;fillColor=none;" vertex="1" parent="1">
          <mxGeometry x="405" y="250" width="40" height="30" as="geometry" />
        </mxCell>
        <mxCell id="g-yWBIVXNdwUDmPCH66V-31" value="Sai" style="text;html=1;align=center;verticalAlign=middle;resizable=0;points=[];autosize=1;strokeColor=none;fillColor=none;" vertex="1" parent="1">
          <mxGeometry x="480" y="320" width="40" height="30" as="geometry" />
        </mxCell>
        <mxCell id="g-yWBIVXNdwUDmPCH66V-32" value="Tên ưu đãi, thời gian bắt đầu / kết thúc ưu đãi, nội dung ưu đãi,&lt;div&gt;phạm vị ưu đãi&lt;/div&gt;" style="whiteSpace=wrap;html=1;shape=mxgraph.basic.document;align=center;" vertex="1" parent="1">
          <mxGeometry x="460" y="100" width="120" height="80" as="geometry" />
        </mxCell>
      </root>
    </mxGraphModel>
  </diagram>
</mxfile>
